<svg width="24" height="24" viewBox="0 0 24 24" fill="none" xmlns="http://www.w3.org/2000/svg">
<path d="M19.5522 2.99693C19.3115 3.01479 19.0752 3.07126 18.8525 3.16418H18.8495C18.6357 3.24893 17.6195 3.67643 16.0745 4.32443L10.538 6.65618C6.56522 8.32868 2.65997 9.97568 2.65997 9.97568L2.70647 9.95768C2.70647 9.95768 2.43722 10.0462 2.15597 10.2389C1.98182 10.349 1.83222 10.4938 1.71647 10.6642C1.57847 10.8667 1.46747 11.1764 1.50872 11.4967C1.57622 12.0382 1.92722 12.3629 2.17922 12.5422C2.43422 12.7237 2.67722 12.8084 2.67722 12.8084H2.68322L6.34547 14.0422C6.50972 14.5694 7.46147 17.6984 7.69022 18.4192C7.82522 18.8497 7.95647 19.1189 8.12072 19.3244C8.19922 19.4294 8.29397 19.5172 8.40497 19.5877C8.46263 19.6223 8.52469 19.6491 8.58947 19.6672L8.55197 19.6582C8.56322 19.6612 8.57222 19.6702 8.58047 19.6732C8.61047 19.6814 8.63072 19.6844 8.66897 19.6904C9.24872 19.8659 9.71447 19.5059 9.71447 19.5059L9.74072 19.4849L11.903 17.5162L15.527 20.2964L15.6095 20.3317C16.3647 20.6632 17.1297 20.4787 17.534 20.1532C17.9412 19.8254 18.0995 19.4062 18.0995 19.4062L18.1257 19.3387L20.9262 4.99193C21.0057 4.63793 21.026 4.30643 20.9382 3.98468C20.8482 3.65882 20.6392 3.37861 20.3525 3.19943C20.1121 3.05318 19.8332 2.98262 19.5522 2.99693ZM19.4765 4.53443C19.4735 4.58168 19.4825 4.57643 19.4615 4.66718V4.67543L16.6872 18.8729C16.6752 18.8932 16.655 18.9374 16.5995 18.9817C16.541 19.0282 16.4945 19.0574 16.2507 18.9607L11.8182 15.5624L9.14072 18.0029L9.70322 14.4104L16.9452 7.66043C17.2437 7.38293 17.144 7.32443 17.144 7.32443C17.165 6.98393 16.6932 7.22468 16.6932 7.22468L7.56122 12.8819L7.55822 12.8669L3.18122 11.3932V11.3902L3.16997 11.3879L3.19247 11.3789L3.21647 11.3669L3.23972 11.3587C3.23972 11.3587 7.14797 9.71168 11.1207 8.03918C13.1097 7.20143 15.1137 6.35768 16.655 5.70668C17.569 5.32193 18.484 4.93943 19.4 4.55918C19.4615 4.53518 19.4322 4.53443 19.4765 4.53443Z" fill="white"/>
</svg>
