<svg width="28" height="30" viewBox="0 0 28 30" fill="none" xmlns="http://www.w3.org/2000/svg">
<g filter="url(#filter0_d_527_483)">
<path d="M21 4.91005C20.0831 3.98416 18.991 3.25002 17.7875 2.75042C16.584 2.25081 15.2931 1.99574 13.99 2.00005C8.53 2.00005 4.08 6.45005 4.08 11.9101C4.08 13.6601 4.54 15.3601 5.4 16.8601L4 22.0001L9.25 20.6201C10.7 21.4101 12.33 21.8301 13.99 21.8301C19.45 21.8301 23.9 17.3801 23.9 11.9201C23.9 9.27005 22.87 6.78005 21 4.91005ZM13.99 20.1501C12.51 20.1501 11.06 19.7501 9.79 19.0001L9.49 18.8201L6.37 19.6401L7.2 16.6001L7 16.2901C6.17755 14.9771 5.74092 13.4593 5.74 11.9101C5.74 7.37005 9.44 3.67005 13.98 3.67005C16.18 3.67005 18.25 4.53005 19.8 6.09005C20.5676 6.85392 21.1759 7.7626 21.5896 8.76338C22.0033 9.76417 22.2142 10.8371 22.21 11.9201C22.23 16.4601 18.53 20.1501 13.99 20.1501ZM18.51 13.9901C18.26 13.8701 17.04 13.2701 16.82 13.1801C16.59 13.1001 16.43 13.0601 16.26 13.3001C16.09 13.5501 15.62 14.1101 15.48 14.2701C15.34 14.4401 15.19 14.4601 14.94 14.3301C14.69 14.2101 13.89 13.9401 12.95 13.1001C12.21 12.4401 11.72 11.6301 11.57 11.3801C11.43 11.1301 11.55 11.0001 11.68 10.8701C11.79 10.7601 11.93 10.5801 12.05 10.4401C12.17 10.3001 12.22 10.1901 12.3 10.0301C12.38 9.86005 12.34 9.72005 12.28 9.60005C12.22 9.48005 11.72 8.26005 11.52 7.76005C11.32 7.28005 11.11 7.34005 10.96 7.33005H10.48C10.31 7.33005 10.05 7.39005 9.82 7.64005C9.6 7.89005 8.96 8.49005 8.96 9.71005C8.96 10.9301 9.85 12.1101 9.97 12.2701C10.09 12.4401 11.72 14.9401 14.2 16.0101C14.79 16.2701 15.25 16.4201 15.61 16.5301C16.2 16.7201 16.74 16.6901 17.17 16.6301C17.65 16.5601 18.64 16.0301 18.84 15.4501C19.05 14.8701 19.05 14.3801 18.98 14.2701C18.91 14.1601 18.76 14.1101 18.51 13.9901Z" fill="white"/>
</g>
<defs>
<filter id="filter0_d_527_483" x="-2.0498" y="0" width="32" height="32" filterUnits="userSpaceOnUse" color-interpolation-filters="sRGB">
<feFlood flood-opacity="0" result="BackgroundImageFix"/>
<feColorMatrix in="SourceAlpha" type="matrix" values="0 0 0 0 0 0 0 0 0 0 0 0 0 0 0 0 0 0 127 0" result="hardAlpha"/>
<feOffset dy="4"/>
<feGaussianBlur stdDeviation="2"/>
<feComposite in2="hardAlpha" operator="out"/>
<feColorMatrix type="matrix" values="0 0 0 0 0 0 0 0 0 0 0 0 0 0 0 0 0 0 0.25 0"/>
<feBlend mode="normal" in2="BackgroundImageFix" result="effect1_dropShadow_527_483"/>
<feBlend mode="normal" in="SourceGraphic" in2="effect1_dropShadow_527_483" result="shape"/>
</filter>
</defs>
</svg>
